<svg width="145" height="36" viewBox="0 0 145 36" fill="none" xmlns="http://www.w3.org/2000/svg">
<path d="M69.7977 13.6214C68.953 13.6037 68.1161 13.7864 67.3555 14.1545C66.5952 14.5225 65.9325 15.0654 65.4224 15.7388V8H62.1245V27.834H65.2818V25.9603C65.7298 26.643 66.3485 27.1966 67.0766 27.5664C67.8047 27.9362 68.6167 28.1092 69.4322 28.0682C72.8894 28.0682 75.1941 25.3701 75.1941 20.798C75.1941 16.2259 73.0862 13.6214 69.7977 13.6214ZM68.6172 25.3606C66.5373 25.3606 65.3288 23.6555 65.3288 20.6762C65.3288 18.0154 66.734 16.329 68.7296 16.329C70.7251 16.329 71.7651 18.0435 71.7651 20.8542C71.7651 23.8242 70.5566 25.3606 68.6172 25.3606Z" fill="#C4C4C4"/>
<path d="M49.495 8L42 27.834H45.8505L47.4528 23.1496H55.2946L56.8684 27.834H60.7379L53.4863 8H49.495ZM48.324 20.3951C50.0666 15.4952 50.7692 13.5652 51.369 11.5696C52.3058 14.4646 53.2426 17.1909 54.3762 20.3951H48.324Z" fill="#C4C4C4"/>
<path d="M128.803 25.4824C126.639 25.4824 125.346 23.8523 125.346 20.798C125.346 17.6781 126.817 16.2447 128.728 16.2447C130.049 16.2447 131.061 16.863 131.455 18.7181L134.415 17.7062C134.134 16.4489 133.414 15.3333 132.383 14.5603C131.352 13.7873 130.079 13.4078 128.794 13.4902C124.606 13.4902 121.964 16.3009 121.964 20.8542C121.964 25.4075 124.55 28.2745 128.625 28.2745C129.91 28.3564 131.186 28.0051 132.248 27.2764C133.309 26.5476 134.096 25.4839 134.481 24.2551L131.52 23.2433C131.436 23.8916 131.108 24.4836 130.604 24.8994C130.099 25.3151 129.456 25.5236 128.803 25.4824Z" fill="#C4C4C4"/>
<path d="M119.762 24.0678V18.9898C119.762 16.7975 119.463 15.6451 118.591 14.8206C118.017 14.3306 117.351 13.9592 116.632 13.7276C115.913 13.4961 115.156 13.409 114.403 13.4715C110.824 13.4715 108.567 15.1579 108.342 18.156L111.499 18.4651C111.494 18.1281 111.561 17.7938 111.696 17.4847C111.83 17.1756 112.029 16.8987 112.279 16.6726C112.529 16.4465 112.825 16.2763 113.146 16.1735C113.467 16.0706 113.806 16.0374 114.141 16.0761C114.842 16.0167 115.539 16.2279 116.09 16.6663C116.287 16.8973 116.436 17.1656 116.528 17.4553C116.62 17.745 116.652 18.0502 116.624 18.3527V19.1116C114.477 19.1848 112.352 19.573 110.318 20.264C109.551 20.5395 108.89 21.0499 108.429 21.7227C107.968 22.3954 107.731 23.1963 107.751 24.0116C107.751 26.5132 109.56 28.1244 112.117 28.1244C112.983 28.1676 113.847 28.0101 114.642 27.6638C115.437 27.3177 116.141 26.7923 116.699 26.1289C117.008 27.5249 117.992 28.0028 119.753 28.0028C120.265 28.0128 120.775 27.9367 121.261 27.7779V25.6792C119.996 25.9042 119.762 25.1639 119.762 24.0678ZM116.624 21.9504C116.638 22.7337 116.427 23.5046 116.015 24.1708C115.69 24.641 115.252 25.0214 114.741 25.2769C114.23 25.5324 113.662 25.6547 113.092 25.6325C111.621 25.6325 110.946 24.8735 110.946 23.8617C110.933 23.4806 111.044 23.1057 111.264 22.7943C111.484 22.483 111.801 22.2523 112.164 22.1378C113.597 21.6105 115.107 21.3255 116.633 21.2946L116.624 21.9504Z" fill="#C4C4C4"/>
<path d="M85.2282 17.9311L87.6737 16.2728C87.0822 15.3626 86.262 14.6238 85.2952 14.1305C84.3284 13.6372 83.2487 13.4067 82.1648 13.4621C78.6983 13.4621 76.74 15.4951 76.74 17.6875C76.74 19.8798 78.1173 21.0884 80.2816 21.7629L81.7713 22.2408C83.8792 22.9154 84.3571 23.3088 84.3571 24.2364C84.3571 25.1639 83.57 25.7074 82.1366 25.7074C81.38 25.7101 80.6384 25.4951 80.0004 25.0882C79.3625 24.6812 78.8553 24.0993 78.539 23.4119L75.9719 25.0983C76.6174 26.0931 77.508 26.9054 78.558 27.4567C79.6082 28.008 80.7825 28.2799 81.968 28.2462C85.4532 28.2462 87.5893 26.3725 87.5893 23.7773C87.5893 21.5287 86.1841 20.3764 83.7106 19.5894L82.2864 19.1397C80.4876 18.5775 80.0379 18.2028 80.0379 17.3408C80.0379 16.4789 80.7126 15.9542 82.1178 15.9542C82.7685 15.9633 83.404 16.153 83.9531 16.502C84.5024 16.8511 84.9438 17.3458 85.2282 17.9311Z" fill="#C4C4C4"/>
<path d="M142.163 25.4544C141.152 25.4544 140.739 24.9484 140.739 23.5056V16.4883H143.456V13.8556H140.739V9.28351H137.47L137.413 13.8556H135.212V16.4883H137.413V24.152C137.31 25.2016 137.589 26.2532 138.2 27.1126C138.571 27.4869 139.021 27.7731 139.518 27.9499C140.014 28.1266 140.543 28.1896 141.067 28.1339C141.895 28.1266 142.719 28.0198 143.522 27.8153V25.2014C143.086 25.3608 142.627 25.4464 142.163 25.4544Z" fill="#C4C4C4"/>
<path d="M94.335 23.5056V16.4883H97.0427V13.8556H94.335V9.28351H91.0653L91.0089 13.8556H88.8448V16.4883H91.0463V24.152C90.9427 25.2016 91.2221 26.2532 91.8334 27.1126C92.2041 27.4869 92.6543 27.7731 93.1505 27.9499C93.6469 28.1266 94.1765 28.1896 94.7003 28.1339C95.5283 28.1266 96.3525 28.0198 97.155 27.8153V25.2014C96.7193 25.3608 96.2601 25.4464 95.7965 25.4544C94.7473 25.4544 94.335 24.9484 94.335 23.5056Z" fill="#C4C4C4"/>
<path d="M102.055 16.0198V13.8556H98.9069V27.9089H102.205V21.3508C102.111 20.2344 102.352 19.1154 102.898 18.1372C103.228 17.6586 103.68 17.2773 104.207 17.0334C104.735 16.7895 105.318 16.6918 105.896 16.7506C106.306 16.7533 106.712 16.8132 107.105 16.9286V13.8556C106.715 13.7306 106.306 13.6704 105.896 13.6776C105.095 13.6378 104.3 13.8399 103.615 14.2576C102.93 14.6752 102.387 15.2893 102.055 16.0198Z" fill="#C4C4C4"/>
<path d="M15.0295 17.4205C14.5145 17.4209 14.0059 17.5348 13.5399 17.754C13.0739 17.9732 12.6619 18.2923 12.3332 18.6888C12.0046 19.0853 11.7673 19.5493 11.6383 20.0479C11.5092 20.5464 11.4916 21.0673 11.5867 21.5734C11.7129 22.2635 12.0427 22.9001 12.5337 23.4011C13.0246 23.9023 13.6543 24.2449 14.3417 24.3851C15.0291 24.5253 15.7427 24.4566 16.3907 24.1878C17.0387 23.919 17.5915 23.4624 17.9778 22.8768C18.3644 22.2997 18.5709 21.6208 18.5711 20.9262C18.5602 19.9967 18.1897 19.1075 17.5374 18.4453C17.2079 18.117 16.8166 17.8574 16.3861 17.6815C15.9556 17.5056 15.4945 17.4169 15.0295 17.4205Z" fill="#C4C4C4"/>
<path d="M17.9778 0C3.59557 0 0 3.59557 0 17.9778C0 32.3601 3.59557 35.9557 17.9778 35.9557C32.3601 35.9557 35.9557 32.3601 35.9557 17.9778C35.9557 3.59557 32.3601 0 17.9778 0ZM19.8925 25.7892C18.7723 26.9233 17.293 27.6329 15.7075 27.797C14.1219 27.9608 12.5287 27.569 11.2002 26.6881C10.072 25.9265 9.19087 24.8516 8.66532 23.5959C8.14856 22.3384 8.01412 20.9564 8.2788 19.6228C8.5396 18.2872 9.19384 17.06 10.1575 16.0992C10.8738 15.3768 11.7412 14.8219 12.6973 14.4743C13.6534 14.1268 14.6746 13.9951 15.6876 14.0887C16.7006 14.1824 17.6804 14.4991 18.5565 15.016C19.4327 15.533 20.1836 16.2375 20.7554 17.079C21.6356 18.4061 22.0272 19.9978 21.8632 21.5818C21.6992 23.1658 20.9899 24.6436 19.8565 25.7622L19.8925 25.7892ZM27.5331 27.5331H24.1622V11.8025H8.43161V8.43161H27.5331V27.5331Z" fill="#C4C4C4"/>
</svg>
