<svg width="68" height="68" viewBox="0 0 68 68" fill="none" xmlns="http://www.w3.org/2000/svg">
<circle cx="33.8894" cy="33.8894" r="33.8894" fill="#5FAEC4" fill-opacity="0.2"/>
<g clip-path="url(#clip0_1_2450)">
<path fill-rule="evenodd" clip-rule="evenodd" d="M29.1 21H45.3C46.0161 21 46.7028 21.2845 47.2092 21.7908C47.7155 22.2972 48 22.9839 48 23.7V39.9C48 40.6161 47.7155 41.3028 47.2092 41.8092C46.7028 42.3155 46.0161 42.6 45.3 42.6H29.1C28.3839 42.6 27.6971 42.3155 27.1908 41.8092C26.6845 41.3028 26.4 40.6161 26.4 39.9V23.7C26.4 22.9839 26.6845 22.2972 27.1908 21.7908C27.6971 21.2845 28.3839 21 29.1 21ZM39.5865 25.3635C38.9535 24.7306 38.0951 24.375 37.2 24.375C36.3049 24.375 35.4464 24.7306 34.8135 25.3635C34.1806 25.9964 33.825 26.8549 33.825 27.75C33.825 28.6451 34.1806 29.5036 34.8135 30.1365C35.4464 30.7694 36.3049 31.125 37.2 31.125C38.0951 31.125 38.9535 30.7694 39.5865 30.1365C40.2194 29.5036 40.575 28.6451 40.575 27.75C40.575 26.8549 40.2194 25.9964 39.5865 25.3635ZM30.45 38.55H43.95V38.2125C43.95 35.7164 40.9071 33.15 37.2 33.15C33.4929 33.15 30.45 35.7164 30.45 38.2125V38.55ZM21 29.1H23.7V45.3H39.9V48H23.7C22.211 48 21 46.7891 21 45.3V29.1Z" fill="#5FAEC4"/>
</g>
<defs>
<clipPath id="clip0_1_2450">
<rect width="27" height="27" fill="white" transform="translate(21 21)"/>
</clipPath>
</defs>
</svg>
