<svg width="34" height="34" viewBox="0 0 34 34" fill="none" xmlns="http://www.w3.org/2000/svg">
<circle cx="17" cy="17" r="17" fill="#6871D1"/>
<path d="M13.1561 14.6353V20.92H11.8612L9.33605 16.7072V20.92H8.04113V14.6353H9.33605L11.8655 18.8524V14.6353H13.1561ZM16.3545 21.0063C15.992 21.0063 15.6668 20.9488 15.379 20.8337C15.0913 20.7157 14.8467 20.5531 14.6452 20.3459C14.4467 20.1387 14.2942 19.8984 14.1877 19.6251C14.0812 19.3488 14.028 19.0553 14.028 18.7445V18.5719C14.028 18.2179 14.0783 17.8942 14.1791 17.6007C14.2798 17.3072 14.4237 17.0525 14.6107 16.8367C14.8006 16.6209 15.0308 16.4554 15.3013 16.3403C15.5718 16.2223 15.8768 16.1633 16.2164 16.1633C16.5473 16.1633 16.8408 16.218 17.097 16.3273C17.3531 16.4367 17.5674 16.5921 17.7401 16.7935C17.9156 16.9949 18.048 17.2367 18.1372 17.5187C18.2264 17.7978 18.271 18.1086 18.271 18.451V18.969H14.5589V18.1402H17.0495V18.0453C17.0495 17.8726 17.0178 17.7187 16.9545 17.5834C16.8941 17.4453 16.802 17.3359 16.6783 17.2554C16.5545 17.1748 16.3963 17.1345 16.2035 17.1345C16.0394 17.1345 15.8984 17.1705 15.7804 17.2424C15.6625 17.3144 15.5661 17.4151 15.4912 17.5446C15.4193 17.6741 15.3646 17.8266 15.3272 18.0021C15.2927 18.1748 15.2754 18.3647 15.2754 18.5719V18.7445C15.2754 18.9316 15.3013 19.1042 15.3531 19.2625C15.4078 19.4208 15.4841 19.5575 15.5819 19.6726C15.6826 19.7877 15.8035 19.8769 15.9445 19.9402C16.0884 20.0035 16.2509 20.0351 16.4322 20.0351C16.6567 20.0351 16.8653 19.992 17.0581 19.9056C17.2538 19.8164 17.4221 19.6826 17.5631 19.5042L18.1674 20.1603C18.0696 20.3013 17.9358 20.4366 17.766 20.5661C17.5991 20.6955 17.3977 20.802 17.1617 20.8855C16.9257 20.966 16.6567 21.0063 16.3545 21.0063ZM20.3127 19.7114L21.2839 16.2496H22.0738L21.8191 17.6093L20.8479 20.92H20.1875L20.3127 19.7114ZM19.8206 16.2496L20.5155 19.7071L20.5803 20.92H19.8033L18.6206 16.2496H19.8206ZM22.9629 19.651L23.6406 16.2496H24.8449L23.6622 20.92H22.8896L22.9629 19.651ZM22.1817 16.2496L23.1486 19.6855L23.2824 20.92H22.6176L21.6464 17.6136L21.4004 16.2496H22.1817Z" fill="white"/>
</svg>
