<svg width="34" height="34" viewBox="0 0 34 34" fill="none" xmlns="http://www.w3.org/2000/svg">
<circle cx="17" cy="17" r="17" fill="#6871D1"/>
<path d="M13.6761 13.7153V20H12.3812L9.85605 15.7872V20H8.56113V13.7153H9.85605L12.3855 17.9324V13.7153H13.6761ZM16.8745 20.0863C16.512 20.0863 16.1868 20.0288 15.899 19.9137C15.6113 19.7957 15.3667 19.6331 15.1652 19.4259C14.9667 19.2187 14.8142 18.9785 14.7077 18.7051C14.6012 18.4288 14.548 18.1353 14.548 17.8245V17.6519C14.548 17.2979 14.5983 16.9742 14.6991 16.6807C14.7998 16.3872 14.9437 16.1325 15.1307 15.9167C15.3206 15.7009 15.5508 15.5354 15.8213 15.4203C16.0918 15.3023 16.3968 15.2433 16.7364 15.2433C17.0673 15.2433 17.3608 15.298 17.617 15.4073C17.8731 15.5167 18.0874 15.6721 18.2601 15.8735C18.4356 16.0749 18.568 16.3167 18.6572 16.5987C18.7464 16.8778 18.791 17.1886 18.791 17.531V18.049H15.0789V17.2202H17.5695V17.1253C17.5695 16.9526 17.5378 16.7987 17.4745 16.6634C17.4141 16.5253 17.322 16.4159 17.1983 16.3354C17.0745 16.2548 16.9163 16.2145 16.7235 16.2145C16.5594 16.2145 16.4184 16.2505 16.3004 16.3224C16.1825 16.3944 16.0861 16.4951 16.0113 16.6246C15.9393 16.7541 15.8846 16.9066 15.8472 17.0821C15.8127 17.2548 15.7954 17.4447 15.7954 17.6519V17.8245C15.7954 18.0116 15.8213 18.1842 15.8731 18.3425C15.9278 18.5008 16.0041 18.6375 16.1019 18.7526C16.2026 18.8677 16.3235 18.9569 16.4645 19.0202C16.6084 19.0835 16.7709 19.1151 16.9522 19.1151C17.1767 19.1151 17.3853 19.072 17.5781 18.9856C17.7738 18.8964 17.9421 18.7626 18.0831 18.5842L18.6874 19.2403C18.5896 19.3813 18.4558 19.5166 18.286 19.6461C18.1191 19.7755 17.9177 19.882 17.6817 19.9655C17.4457 20.046 17.1767 20.0863 16.8745 20.0863ZM20.8327 18.7914L21.8039 15.3296H22.5938L22.3391 16.6893L21.3679 20H20.7075L20.8327 18.7914ZM20.3406 15.3296L21.0355 18.7871L21.1003 20H20.3233L19.1406 15.3296H20.3406ZM23.4829 18.731L24.1606 15.3296H25.3649L24.1822 20H23.4096L23.4829 18.731ZM22.7017 15.3296L23.6686 18.7655L23.8024 20H23.1376L22.1664 16.6936L21.9204 15.3296H22.7017Z" fill="white"/>
</svg>
